<?xml version="1.0" encoding="UTF-8" standalone="no"?>
<svg
   xmlns:dc="http://purl.org/dc/elements/1.1/"
   xmlns:cc="http://creativecommons.org/ns#"
   xmlns:rdf="http://www.w3.org/1999/02/22-rdf-syntax-ns#"
   xmlns:svg="http://www.w3.org/2000/svg"
   xmlns="http://www.w3.org/2000/svg"
   xmlns:sodipodi="http://sodipodi.sourceforge.net/DTD/sodipodi-0.dtd"
   xmlns:inkscape="http://www.inkscape.org/namespaces/inkscape"
   id="Capa_1"
   style="enable-background:new 0 0 90 90;"
   version="1.1"
   viewBox="0 0 90 90"
   xml:space="preserve"
   sodipodi:docname="y.svg"
   inkscape:version="0.92.1 r15371"><metadata
     id="metadata3776"><rdf:RDF><cc:Work
         rdf:about=""><dc:format>image/svg+xml</dc:format><dc:type
           rdf:resource="http://purl.org/dc/dcmitype/StillImage" /><dc:title></dc:title></cc:Work></rdf:RDF></metadata><defs
     id="defs3774" /><sodipodi:namedview
     pagecolor="#ffffff"
     bordercolor="#666666"
     borderopacity="1"
     objecttolerance="10"
     gridtolerance="10"
     guidetolerance="10"
     inkscape:pageopacity="0"
     inkscape:pageshadow="2"
     inkscape:window-width="640"
     inkscape:window-height="480"
     id="namedview3772"
     showgrid="false"
     inkscape:zoom="2.6222222"
     inkscape:cx="45"
     inkscape:cy="45"
     inkscape:window-x="0"
     inkscape:window-y="0"
     inkscape:window-maximized="0"
     inkscape:current-layer="Capa_1" /><g
     id="g3769"
     transform="matrix(1.0101694,0,0,0.89830508,-0.07627118,4.5762712)"><g
       id="g3767"><path
         d="M 70.9,65.8 H 66 v -2.9 c 0,-1.3 1,-2.3 2.3,-2.3 h 0.3 c 1.3,0 2.3,1 2.3,2.3 z M 52.4,59.7 c -1.3,0 -2.3,0.8 -2.3,1.9 v 14 c 0,1 1,1.9 2.3,1.9 1.3,0 2.3,-0.8 2.3,-1.9 v -14 c 0,-1.1 -1,-1.9 -2.3,-1.9 z M 82.5,51.9 V 78.4 C 82.5,84.8 77,90 70.2,90 H 19.8 C 13,90 7.5,84.8 7.5,78.4 V 51.9 C 7.5,45.5 13,40.3 19.8,40.3 h 50.5 c 6.7,0 12.2,5.2 12.2,11.6 z M 23.1,81.3 v -28 h 6.3 V 49.2 H 12.7 v 4.1 h 5.2 v 28 z M 41.9,57.5 h -5.2 v 14.9 c 0,2.2 0.1,3.2 0,3.6 -0.4,1.2 -2.3,2.4 -3.1,0.1 -0.1,-0.4 0,-1.6 0,-3.6 v -15 h -5.2 v 14.8 c 0,2.3 -0.1,4 0,4.7 0.1,1.4 0.1,2.9 1.3,3.8 2.3,1.7 6.8,-0.3 8,-2.7 v 3.1 h 4.2 z M 58.6,74.6 V 62.2 c 0,-4.7 -3.5,-7.6 -8.4,-3.7 V 49.3 H 45 v 31.9 l 4.3,-0.1 0.4,-2 c 5.4,5 8.9,1.5 8.9,-4.5 z M 74.9,73 H 71 c 0,0.2 0,0.3 0,0.5 v 2.2 c 0,1.2 -1,2.1 -2.1,2.1 h -0.8 c -1.2,0 -2.1,-1 -2.1,-2.1 V 75.5 73 70 h 9 v -3.4 c 0,-2.5 -0.1,-4.9 -0.3,-6.3 -0.6,-4.5 -6.9,-5.2 -10.1,-2.9 -1,0.7 -1.7,1.7 -2.2,2.9 -0.4,1.3 -0.7,3 -0.7,5.3 V 73 c 0,12.3 15,10.6 13.2,0 z M 54.8,32.7 c 0.3,0.7 0.7,1.2 1.3,1.6 0.6,0.4 1.3,0.6 2.1,0.6 0.8,0 1.4,-0.2 2,-0.6 0.6,-0.4 1.1,-1 1.5,-1.9 l -0.1,2 h 5.8 V 9.7 H 62.8 V 29 c 0,1 -0.9,1.9 -1.9,1.9 C 59.9,30.9 59,30 59,29 V 9.7 h -4.8 v 16.7 c 0,2.1 0,3.5 0.1,4.3 0.1,0.7 0.3,1.4 0.5,2 z M 37.2,18.8 c 0,-2.4 0.2,-4.2 0.6,-5.6 0.4,-1.3 1.1,-2.4 2.1,-3.2 1,-0.8 2.3,-1.2 3.9,-1.2 1.3,0 2.5,0.3 3.5,0.8 1,0.5 1.7,1.2 2.2,2 0.5,0.8 0.9,1.7 1.1,2.6 0.2,0.9 0.3,2.2 0.3,4 v 6.3 c 0,2.3 -0.1,4 -0.3,5.1 -0.2,1.1 -0.6,2.1 -1.1,3 -0.6,0.9 -1.3,1.6 -2.2,2.1 -0.9,0.4 -2,0.7 -3.2,0.7 -1.3,0 -2.4,-0.2 -3.4,-0.6 -0.9,-0.4 -1.6,-1 -2.1,-1.7 -0.5,-0.8 -0.9,-1.7 -1.1,-2.8 -0.2,-1.1 -0.3,-2.7 -0.3,-4.9 z m 4.6,9.8 c 0,1.4 1,2.5 2.3,2.5 1.3,0 2.3,-1.1 2.3,-2.5 V 15.4 c 0,-1.4 -1,-2.5 -2.3,-2.5 -1.3,0 -2.3,1.1 -2.3,2.5 z m -16.1,6.6 h 5.5 v -19 L 37.7,0 h -6 L 28.3,12.1 24.7,0 h -5.9 l 6.9,16.3 z"
         id="YouTube"
         inkscape:connector-curvature="0" /></g></g></svg>