<?xml version="1.0" encoding="UTF-8" standalone="no"?>
<svg
   xmlns:dc="http://purl.org/dc/elements/1.1/"
   xmlns:cc="http://creativecommons.org/ns#"
   xmlns:rdf="http://www.w3.org/1999/02/22-rdf-syntax-ns#"
   xmlns:svg="http://www.w3.org/2000/svg"
   xmlns="http://www.w3.org/2000/svg"
   xmlns:sodipodi="http://sodipodi.sourceforge.net/DTD/sodipodi-0.dtd"
   xmlns:inkscape="http://www.inkscape.org/namespaces/inkscape"
   id="Capa_1"
   style="enable-background:new 0 0 430.1 430.1;"
   version="1.1"
   viewBox="0 0 430.1 430.1"
   xml:space="preserve"
   sodipodi:docname="f.svg"
   inkscape:version="0.92.1 r15371"><metadata
     id="metadata12"><rdf:RDF><cc:Work
         rdf:about=""><dc:format>image/svg+xml</dc:format><dc:type
           rdf:resource="http://purl.org/dc/dcmitype/StillImage" /></cc:Work></rdf:RDF></metadata><defs
     id="defs10" /><sodipodi:namedview
     pagecolor="#ffffff"
     bordercolor="#666666"
     borderopacity="1"
     objecttolerance="10"
     gridtolerance="10"
     guidetolerance="10"
     inkscape:pageopacity="0"
     inkscape:pageshadow="2"
     inkscape:window-width="640"
     inkscape:window-height="480"
     id="namedview8"
     showgrid="false"
     inkscape:zoom="0.54870959"
     inkscape:cx="215.05"
     inkscape:cy="215.05"
     inkscape:window-x="0"
     inkscape:window-y="0"
     inkscape:window-maximized="0"
     inkscape:current-layer="Capa_1" /><g
     id="g5"
     transform="matrix(1,0,0,0.92374654,0,16.394494)"><g
       id="g3"><path
         d="m 158.1,83.3 c 0,10.8 0,59.2 0,59.2 h -43.4 v 72.4 h 43.4 v 215.2 h 89.1 V 214.9 H 307 c 0,0 5.6,-34.7 8.3,-72.7 -7.8,0 -67.8,0 -67.8,0 0,0 0,-42.1 0,-49.5 0,-7.4 9.7,-17.4 19.3,-17.4 9.6,0 29.8,0 48.6,0 0,-9.9 0,-43.9 0,-75.4 -25,0 -53.5,0 -66,0 -93.5,0.1 -91.3,72.6 -91.3,83.4 z"
         id="Facebook"
         inkscape:connector-curvature="0"
         style="fill:#1e88e5" /></g></g></svg>