<?xml version="1.0" encoding="UTF-8" standalone="no"?>
<svg
   xmlns:dc="http://purl.org/dc/elements/1.1/"
   xmlns:cc="http://creativecommons.org/ns#"
   xmlns:rdf="http://www.w3.org/1999/02/22-rdf-syntax-ns#"
   xmlns:svg="http://www.w3.org/2000/svg"
   xmlns="http://www.w3.org/2000/svg"
   xmlns:sodipodi="http://sodipodi.sourceforge.net/DTD/sodipodi-0.dtd"
   xmlns:inkscape="http://www.inkscape.org/namespaces/inkscape"
   enable-background="new 0 0 32 32"
   version="1.1"
   viewBox="0 0 32 32"
   xml:space="preserve"
   id="svg3704"
   sodipodi:docname="t.svg"
   inkscape:version="0.92.1 r15371"><metadata
     id="metadata3710"><rdf:RDF><cc:Work
         rdf:about=""><dc:format>image/svg+xml</dc:format><dc:type
           rdf:resource="http://purl.org/dc/dcmitype/StillImage" /></cc:Work></rdf:RDF></metadata><defs
     id="defs3708" /><sodipodi:namedview
     pagecolor="#ffffff"
     bordercolor="#666666"
     borderopacity="1"
     objecttolerance="10"
     gridtolerance="10"
     guidetolerance="10"
     inkscape:pageopacity="0"
     inkscape:pageshadow="2"
     inkscape:window-width="640"
     inkscape:window-height="480"
     id="namedview3706"
     showgrid="false"
     inkscape:zoom="7.375"
     inkscape:cx="16"
     inkscape:cy="16"
     inkscape:window-x="0"
     inkscape:window-y="0"
     inkscape:window-maximized="0"
     inkscape:current-layer="svg3704" /><g
     id="Flat_copy"
     transform="matrix(0.88983129,0,0,0.9283179,2.0338983,1.28252)"><path fill="#64b5f6"
       d="m 20.046,3.071 c -2.89,1.052 -4.716,3.764 -4.509,6.732 l 0.07,1.145 -1.156,-0.14 C 10.244,10.271 6.567,8.448 3.445,5.385 L 1.919,3.866 1.526,4.988 c -0.832,2.501 -0.3,5.143 1.433,6.92 0.925,0.982 0.716,1.122 -0.878,0.537 -0.555,-0.186 -1.041,-0.327 -1.087,-0.257 -0.161,0.164 0.393,2.291 0.832,3.133 0.601,1.17 1.826,2.314 3.168,2.993 l 1.133,0.537 -1.341,0.023 c -1.294,0 -1.341,0.023 -1.202,0.515 0.462,1.519 2.289,3.133 4.323,3.834 l 1.433,0.49 -1.248,0.748 C 6.243,25.538 4.069,26.145 1.895,26.19 0.855,26.213 0,26.307 0,26.378 c 0,0.233 2.821,1.541 4.462,2.057 4.925,1.519 10.775,0.864 15.168,-1.73 3.122,-1.847 6.242,-5.517 7.7,-9.071 0.787,-1.892 1.572,-5.353 1.572,-7.011 0,-1.076 0.07,-1.216 1.364,-2.501 0.764,-0.748 1.48,-1.566 1.619,-1.8 0.232,-0.445 0.207,-0.445 -0.971,-0.047 -1.965,0.702 -2.243,0.608 -1.271,-0.444 0.716,-0.748 1.572,-2.104 1.572,-2.501 0,-0.07 -0.346,0.046 -0.74,0.257 C 30.059,3.819 29.134,4.17 28.44,4.38 L 27.192,4.778 26.059,4.006 C 25.434,3.586 24.557,3.118 24.094,2.978 22.914,2.651 21.11,2.697 20.046,3.071 Z"
       id="path3701"
       inkscape:connector-curvature="0" /></g><g
     transform="matrix(0.88983129,0,0,0.9283179,2.0338983,1.28252)"
     id="g3714"><path fill="#64b5f6"
       inkscape:connector-curvature="0"
       id="path3712"
       d="m 20.046,3.071 c -2.89,1.052 -4.716,3.764 -4.509,6.732 l 0.07,1.145 -1.156,-0.14 C 10.244,10.271 6.567,8.448 3.445,5.385 L 1.919,3.866 1.526,4.988 c -0.832,2.501 -0.3,5.143 1.433,6.92 0.925,0.982 0.716,1.122 -0.878,0.537 -0.555,-0.186 -1.041,-0.327 -1.087,-0.257 -0.161,0.164 0.393,2.291 0.832,3.133 0.601,1.17 1.826,2.314 3.168,2.993 l 1.133,0.537 -1.341,0.023 c -1.294,0 -1.341,0.023 -1.202,0.515 0.462,1.519 2.289,3.133 4.323,3.834 l 1.433,0.49 -1.248,0.748 C 6.243,25.538 4.069,26.145 1.895,26.19 0.855,26.213 0,26.307 0,26.378 c 0,0.233 2.821,1.541 4.462,2.057 4.925,1.519 10.775,0.864 15.168,-1.73 3.122,-1.847 6.242,-5.517 7.7,-9.071 0.787,-1.892 1.572,-5.353 1.572,-7.011 0,-1.076 0.07,-1.216 1.364,-2.501 0.764,-0.748 1.48,-1.566 1.619,-1.8 0.232,-0.445 0.207,-0.445 -0.971,-0.047 -1.965,0.702 -2.243,0.608 -1.271,-0.444 0.716,-0.748 1.572,-2.104 1.572,-2.501 0,-0.07 -0.346,0.046 -0.74,0.257 C 30.059,3.819 29.134,4.17 28.44,4.38 L 27.192,4.778 26.059,4.006 C 25.434,3.586 24.557,3.118 24.094,2.978 22.914,2.651 21.11,2.697 20.046,3.071 Z" /></g></svg>