<?xml version="1.0" encoding="UTF-8" standalone="no"?>
<svg
   xmlns:dc="http://purl.org/dc/elements/1.1/"
   xmlns:cc="http://creativecommons.org/ns#"
   xmlns:rdf="http://www.w3.org/1999/02/22-rdf-syntax-ns#"
   xmlns:svg="http://www.w3.org/2000/svg"
   xmlns="http://www.w3.org/2000/svg"
   xmlns:sodipodi="http://sodipodi.sourceforge.net/DTD/sodipodi-0.dtd"
   xmlns:inkscape="http://www.inkscape.org/namespaces/inkscape"
   enable-background="new 0 0 56.693 56.693"
   id="Layer_1"
   version="1.1"
   viewBox="0 0 56.693 56.693"
   xml:space="preserve"
   sodipodi:docname="r.svg"
   inkscape:version="0.92.1 r15371"><metadata
     id="metadata3785"><rdf:RDF><cc:Work
         rdf:about=""><dc:format>image/svg+xml</dc:format><dc:type
           rdf:resource="http://purl.org/dc/dcmitype/StillImage" /><dc:title></dc:title></cc:Work></rdf:RDF></metadata><defs
     id="defs3783" /><sodipodi:namedview
     pagecolor="#ffffff"
     bordercolor="#666666"
     borderopacity="1"
     objecttolerance="10"
     gridtolerance="10"
     guidetolerance="10"
     inkscape:pageopacity="0"
     inkscape:pageshadow="2"
     inkscape:window-width="640"
     inkscape:window-height="480"
     id="namedview3781"
     showgrid="false"
     inkscape:zoom="4.1627714"
     inkscape:cx="28.3465"
     inkscape:cy="28.3465"
     inkscape:window-x="0"
     inkscape:window-y="0"
     inkscape:window-maximized="0"
     inkscape:current-layer="Layer_1" /><path fill="#1e88e5"
     d="M3.428,31.085c6.19,0,12.009,2.418,16.382,6.816c4.381,4.398,6.793,10.256,6.793,16.492h9.539  c0-18.113-14.676-32.848-32.714-32.848V31.085z M3.443,14.174c22.061,0,40.01,18.047,40.01,40.231h9.539  c0-27.445-22.229-49.77-49.549-49.77V14.174z M16.634,47.741c0,3.648-2.959,6.607-6.607,6.607S3.42,51.39,3.42,47.741  c0-3.65,2.958-6.607,6.606-6.607S16.634,44.091,16.634,47.741z"
     id="path3778" /></svg>