<?xml version="1.0" encoding="UTF-8" standalone="no"?>
<svg
   xmlns:dc="http://purl.org/dc/elements/1.1/"
   xmlns:cc="http://creativecommons.org/ns#"
   xmlns:rdf="http://www.w3.org/1999/02/22-rdf-syntax-ns#"
   xmlns:svg="http://www.w3.org/2000/svg"
   xmlns="http://www.w3.org/2000/svg"
   xmlns:sodipodi="http://sodipodi.sourceforge.net/DTD/sodipodi-0.dtd"
   xmlns:inkscape="http://www.inkscape.org/namespaces/inkscape"
   enable-background="new 0 0 32 32"
   version="1.1"
   viewBox="0 0 32 32"
   xml:space="preserve"
   id="svg5"
   sodipodi:docname="p-hover.svg"
   inkscape:version="0.92.1 r15371"><metadata
     id="metadata11"><rdf:RDF><cc:Work
         rdf:about=""><dc:format>image/svg+xml</dc:format><dc:type
           rdf:resource="http://purl.org/dc/dcmitype/StillImage" /></cc:Work></rdf:RDF></metadata><defs
     id="defs9" /><sodipodi:namedview
     pagecolor="#ffffff"
     bordercolor="#666666"
     borderopacity="1"
     objecttolerance="10"
     gridtolerance="10"
     guidetolerance="10"
     inkscape:pageopacity="0"
     inkscape:pageshadow="2"
     inkscape:window-width="640"
     inkscape:window-height="480"
     id="namedview7"
     showgrid="false"
     inkscape:zoom="7.375"
     inkscape:cx="16"
     inkscape:cy="16"
     inkscape:window-x="0"
     inkscape:window-y="0"
     inkscape:window-maximized="0"
     inkscape:current-layer="svg5" /><g
     id="Flat_copy"
     transform="matrix(1,0,0,0.91102002,0,1.4915254)"><path
       d="m 28.386,10.53 c 0,7.21 -4.008,12.598 -9.918,12.598 -1.985,0 -3.851,-1.073 -4.49,-2.292 0,0 -1.068,4.235 -1.292,5.053 C 11.89,28.777 9.549,31.666 9.368,31.904 9.241,32.069 8.961,32.017 8.931,31.799 8.88,31.431 8.284,27.786 8.986,24.813 9.338,23.32 11.35,14.797 11.35,14.797 c 0,0 -0.586,-1.174 -0.586,-2.908 0,-2.725 1.578,-4.758 3.544,-4.758 1.672,0 2.479,1.254 2.479,2.759 0,1.682 -1.069,4.194 -1.622,6.522 -0.461,1.95 0.978,3.541 2.901,3.541 3.482,0 5.827,-4.474 5.827,-9.773 0,-4.028 -2.712,-7.044 -7.648,-7.044 -5.574,0 -9.049,4.158 -9.049,8.803 0,1.602 0.473,2.732 1.213,3.605 0.339,0.402 0.387,0.563 0.264,1.025 -0.09,0.339 -0.29,1.152 -0.376,1.475 -0.122,0.466 -0.499,0.632 -0.92,0.46 C 4.81,17.456 3.613,14.643 3.613,11.482 3.614,6.261 8.017,0 16.75,0 23.769,0 28.386,5.077 28.386,10.53 Z"
       id="path2"
       inkscape:connector-curvature="0"
       style="fill:#64b5f6" /></g></svg>